HIERARCHY
ROOT Hips
{
	OFFSET -0.001795 -0.223333 0.028219
	CHANNELS 6 Xposition Yposition Zposition Zrotation Yrotation Xrotation 
	JOINT LeftUpLeg
	{
		OFFSET 0.069520 -0.091406 -0.006815
		CHANNELS 3 Zrotation Yrotation Xrotation
		JOINT LeftLeg
		{
			OFFSET 0.034277 -0.375199 -0.004496
			CHANNELS 3 Zrotation Yrotation Xrotation
			JOINT LeftFoot
			{
				OFFSET -0.013596 -0.397961 -0.043693
				CHANNELS 3 Zrotation Yrotation Xrotation
				JOINT LeftToe
				{
					OFFSET 0.026358 -0.055791 0.119288
					CHANNELS 3 Zrotation Yrotation Xrotation
					End Site
					{
						OFFSET 0.000000 0.000000 0.000000
					}
				}
			}
		}
	}
	JOINT RightUpLeg
	{
		OFFSET -0.067670 -0.090522 -0.004320
		CHANNELS 3 Zrotation Yrotation Xrotation
		JOINT RightLeg
		{
			OFFSET -0.038290 -0.382569 -0.008850
			CHANNELS 3 Zrotation Yrotation Xrotation
			JOINT RightFoot
			{
				OFFSET 0.015774 -0.398415 -0.042312
				CHANNELS 3 Zrotation Yrotation Xrotation
				JOINT RightToe
				{
					OFFSET -0.025372 -0.048144 0.123348
					CHANNELS 3 Zrotation Yrotation Xrotation
					End Site
					{
						OFFSET 0.000000 0.000000 0.000000
					}
				}
			}
		}
	}
	JOINT Spine
	{
		OFFSET -0.002533 0.108963 -0.026696
		CHANNELS 3 Zrotation Yrotation Xrotation
		JOINT Spine1
		{
			OFFSET 0.005487 0.135180 0.001092
			CHANNELS 3 Zrotation Yrotation Xrotation
			JOINT Spine2
			{
				OFFSET 0.001457 0.052922 0.025425
				CHANNELS 3 Zrotation Yrotation Xrotation
				JOINT Neck
				{
					OFFSET -0.002778 0.213870 -0.042857
					CHANNELS 3 Zrotation Yrotation Xrotation
					JOINT Head
					{
						OFFSET 0.005152 0.064970 0.051349
						CHANNELS 3 Zrotation Yrotation Xrotation
						End Site
						{
							OFFSET 0.000000 0.000000 0.000000
						}
					}
				}
				JOINT LeftShoulder
				{
					OFFSET 0.078845 0.121749 -0.034090
					CHANNELS 3 Zrotation Yrotation Xrotation
					JOINT LeftArm
					{
						OFFSET 0.090977 0.030469 -0.008868
						CHANNELS 3 Zrotation Yrotation Xrotation
						JOINT LeftForeArm
						{
							OFFSET 0.259612 -0.012772 -0.027456
							CHANNELS 3 Zrotation Yrotation Xrotation
							JOINT LeftHand
							{
								OFFSET 0.249234 0.008986 -0.001171
								CHANNELS 3 Zrotation Yrotation Xrotation
								End Site
								{
									OFFSET 0.000000 0.000000 0.000000
								}
							}
						}
					}
				}
				JOINT RightShoulder
				{
					OFFSET -0.081759 0.118833 -0.038615
					CHANNELS 3 Zrotation Yrotation Xrotation
					JOINT RightArm
					{
						OFFSET -0.096012 0.032551 -0.009143
						CHANNELS 3 Zrotation Yrotation Xrotation
						JOINT RightForeArm
						{
							OFFSET -0.253742 -0.013329 -0.021401
							CHANNELS 3 Zrotation Yrotation Xrotation
							JOINT RightHand
							{
								OFFSET -0.255298 0.007772 -0.005559
								CHANNELS 3 Zrotation Yrotation Xrotation
								End Site
								{
									OFFSET 0.000000 0.000000 0.000000
								}
							}
						}
					}
				}
			}
		}
	}
}
MOTION
Frames: 17
Frame Time: 0.050000
0.222937 0.861396 -0.037663 -3.649943 5.177604 20.790362 18.934278 1.920303 -50.625838 -7.572782 1.972517 39.438143 7.523931 17.237098 6.289842 0.000000 0.000000 0.000000 -14.841420 -1.680207 -45.702749 12.148125 -4.610707 33.971989 -12.250037 -27.522631 11.633883 0.000000 0.000000 0.000000 0.204397 -1.678727 27.875221 0.347558 0.134882 -7.688247 4.096312 -2.711040 4.332825 -7.210065 4.814941 -23.678504 0.000000 0.000000 0.000000 6.755006 0.738462 0.319257 -18.715329 -28.119251 0.905132 132.111614 -19.562302 -33.907069 0.000000 0.000000 0.000000 -12.018951 3.294078 1.941455 20.020590 28.773392 1.459627 -139.405752 19.798841 -39.198270 0.000000 0.000000 0.000000 
0.219942 0.887921 -0.016512 -3.224691 4.941467 17.956014 16.581134 0.759040 -42.267064 -4.002113 0.213385 32.608162 5.851700 14.059686 6.514565 0.000000 0.000000 0.000000 -12.431052 -0.348665 -37.189005 8.361112 -2.409455 27.129433 -10.507961 -24.619489 9.027390 0.000000 0.000000 0.000000 -1.359490 -0.772918 21.191188 2.161523 -0.649095 -5.514180 4.283118 -4.288922 2.806217 -7.140086 4.804207 -19.560376 0.000000 0.000000 0.000000 7.925321 3.285920 -0.406519 -21.557717 -29.205341 1.748989 130.314555 -15.635671 -24.944445 0.000000 0.000000 0.000000 -10.965602 2.034552 1.729364 21.623922 31.996833 2.231085 -140.580271 18.006888 -38.172340 0.000000 0.000000 0.000000 
0.218701 0.908434 0.004544 -3.100937 5.228900 15.327477 14.878147 0.058872 -33.848546 -0.144939 -1.075958 25.393466 3.650359 10.525161 8.838952 0.000000 0.000000 0.000000 -10.674492 0.246029 -30.562074 5.563859 -1.227275 22.726734 -9.260518 -22.096619 8.643419 0.000000 0.000000 0.000000 -1.712053 -0.436047 15.459537 2.306488 -0.654350 -6.411075 4.492409 -6.256171 3.146676 -6.756872 4.645314 -15.324831 0.000000 0.000000 0.000000 8.872076 3.559314 -0.542776 -21.998389 -31.306225 2.330361 127.302736 -13.212935 -18.427711 0.000000 0.000000 0.000000 -11.174942 0.739023 1.600980 20.610898 36.378141 2.444462 -136.621205 18.125814 -36.929597 0.000000 0.000000 0.000000 
0.219426 0.923829 0.020579 -2.925875 4.487239 13.939292 13.951034 -0.135615 -26.980468 1.203607 -1.057278 18.081811 2.619980 10.162947 15.086215 0.000000 0.000000 0.000000 -8.827746 0.735578 -25.188517 2.337056 -0.121181 17.297277 -7.543573 -18.752905 7.711370 0.000000 0.000000 0.000000 -2.683882 -0.043399 8.704491 2.677812 -0.860772 -5.628396 3.961242 -6.904492 1.909536 -6.774048 4.781836 -11.018497 0.000000 0.000000 0.000000 12.942833 3.360905 -0.248727 -21.286369 -34.542354 3.025066 120.309440 -12.543719 -14.221847 0.000000 0.000000 0.000000 -14.952264 0.499238 2.169378 19.843250 38.585068 2.471793 -130.112574 16.428657 -30.329836 0.000000 0.000000 0.000000 
0.221060 0.934984 0.031797 -2.654562 4.997901 12.226573 12.880252 -0.365378 -21.869464 2.261481 -0.997637 12.710118 1.594090 10.420844 22.617456 0.000000 0.000000 0.000000 -7.565168 0.840930 -20.581025 0.262336 0.348301 13.787776 -6.874745 -17.308856 9.233276 0.000000 0.000000 0.000000 -2.620568 0.030307 4.678372 2.528742 -0.862528 -4.681062 3.676594 -7.900728 -0.227799 -6.432179 4.678690 -7.287869 0.000000 0.000000 0.000000 15.395616 1.776356 0.228703 -17.397556 -37.335655 2.806361 115.165761 -11.777089 -11.286683 0.000000 0.000000 0.000000 -18.942755 1.297682 3.018354 14.198682 40.539822 1.015918 -123.198869 14.234968 -24.012094 0.000000 0.000000 0.000000 
0.223318 0.943397 0.039785 -2.845435 3.580270 11.357729 12.373259 -0.345601 -17.811868 2.630259 -0.745771 7.933621 2.941870 12.659092 26.976736 0.000000 0.000000 0.000000 -6.324334 0.966487 -17.134964 -1.341882 0.618231 10.317741 -5.578130 -14.925958 10.089020 0.000000 0.000000 0.000000 -2.838281 0.109974 1.043086 2.268031 -0.766699 -4.760509 3.943960 -7.386796 -0.944356 -5.111796 3.863474 -4.229114 0.000000 0.000000 0.000000 19.167592 1.358990 0.493193 -17.273160 -39.139906 3.220796 113.057666 -9.501213 -7.379033 0.000000 0.000000 0.000000 -24.329489 1.346713 3.798312 10.600555 41.580308 -0.136832 -118.129667 11.189302 -17.940362 0.000000 0.000000 0.000000 
0.225574 0.948981 0.046811 -2.965048 3.265560 10.442010 11.640517 -0.396436 -14.794031 3.402921 -0.661377 4.764358 3.763520 13.914929 29.485255 0.000000 0.000000 0.000000 -5.781279 0.913817 -14.391390 -1.656037 0.560095 7.616394 -5.175631 -14.276192 11.398007 0.000000 0.000000 0.000000 -2.882042 0.137401 -1.171809 2.193328 -0.720812 -5.144428 3.870518 -7.870674 -0.871452 -4.828593 3.679767 -3.460946 0.000000 0.000000 0.000000 20.625116 2.192472 0.308383 -16.378675 -38.698556 3.015072 113.706218 -10.487177 -8.459822 0.000000 0.000000 0.000000 -28.073688 0.219165 4.294289 8.828841 41.758216 -0.855969 -115.454934 8.076790 -13.327696 0.000000 0.000000 0.000000 
0.227790 0.952593 0.053628 -2.852847 2.921368 9.995939 10.936723 -0.430854 -12.130426 3.711383 -0.481255 1.508585 4.740840 15.144328 31.304361 0.000000 0.000000 0.000000 -5.493013 0.846636 -12.281880 -1.784637 0.486865 5.647730 -4.972764 -13.953837 11.708434 0.000000 0.000000 0.000000 -3.422666 0.169936 -3.281175 2.013177 -0.624131 -5.670056 4.054812 -7.870969 -0.683444 -3.961116 3.069990 -2.401134 0.000000 0.000000 0.000000 22.368933 3.665917 0.142639 -18.113109 -38.344596 3.491088 114.482247 -12.660284 -11.547992 0.000000 0.000000 0.000000 -30.259568 -0.826103 4.539541 9.938998 40.552520 -0.574931 -115.382072 8.188636 -13.902916 0.000000 0.000000 0.000000 
0.229367 0.954805 0.060554 -2.838908 2.671479 9.228255 10.476267 -0.428506 -10.696008 4.193584 -0.527933 1.346848 4.695753 15.090702 31.646421 0.000000 0.000000 0.000000 -4.945241 0.771974 -10.216938 -2.622419 0.549255 4.453422 -4.749971 -13.618322 12.270296 0.000000 0.000000 0.000000 -3.600022 0.171785 -4.468149 1.676734 -0.482588 -5.856368 4.022700 -7.820607 -0.416481 -3.835165 3.007497 -1.369433 0.000000 0.000000 0.000000 23.011275 5.580142 -0.113770 -19.236067 -36.759954 3.505643 116.297907 -14.796708 -15.092418 0.000000 0.000000 0.000000 -29.980709 -2.240828 4.410732 11.065436 37.654640 -0.234152 -115.881603 9.008779 -15.522055 0.000000 0.000000 0.000000 
0.230149 0.956623 0.067414 -2.936720 2.509885 8.703526 10.334088 -0.415705 -9.474529 4.465317 -0.538309 1.044184 4.648395 15.042475 31.966717 0.000000 0.000000 0.000000 -4.953065 0.670607 -8.395294 -2.371334 0.453543 3.415125 -4.417535 -13.083057 12.833361 0.000000 0.000000 0.000000 -3.670863 0.171346 -5.308803 1.227432 -0.285386 -6.255688 3.711764 -6.937782 0.087118 -3.304954 2.618176 -0.520106 0.000000 0.000000 0.000000 23.336037 6.423770 -0.041919 -19.808388 -34.086095 3.021100 119.256603 -16.656884 -19.612825 0.000000 0.000000 0.000000 -31.136221 -4.329608 4.203917 15.594474 33.252495 0.811948 -116.192793 11.759287 -19.297705 0.000000 0.000000 0.000000 
0.230084 0.959103 0.073579 -3.231618 2.329309 8.265037 10.530200 -0.390401 -8.172965 4.615992 -0.505470 0.360229 4.564565 14.973333 32.520132 0.000000 0.000000 0.000000 -4.547405 0.590853 -6.824635 -2.750883 0.437395 2.307438 -4.045654 -12.512786 13.519987 0.000000 0.000000 0.000000 -3.876366 0.167941 -6.125826 1.368921 -0.371690 -5.678880 3.493159 -6.768630 -0.377589 -2.765794 2.208397 0.634750 0.000000 0.000000 0.000000 23.982833 7.618363 -0.071361 -20.060084 -30.768845 2.492683 119.313451 -17.505509 -20.965225 0.000000 0.000000 0.000000 -31.310503 -6.182709 4.126773 18.502564 29.234029 1.118293 -114.856247 15.177361 -23.969764 0.000000 0.000000 0.000000 
0.229711 0.961199 0.078549 -4.009045 2.170564 7.267049 11.130872 -0.347483 -6.952542 5.012977 -0.578723 0.710868 4.504259 14.918838 32.839761 0.000000 0.000000 0.000000 -3.586016 0.452156 -4.574286 -2.763061 0.357566 0.990742 -3.511244 -11.741668 14.673757 0.000000 0.000000 0.000000 -4.037576 0.152830 -6.262362 1.678510 -0.493335 -5.879020 3.227780 -6.599190 0.715728 -2.109456 1.676744 -0.365659 0.000000 0.000000 0.000000 25.435795 8.725849 -0.059969 -21.858687 -27.962750 2.267150 120.047049 -18.709140 -23.168920 0.000000 0.000000 0.000000 -31.728846 -8.475888 3.943333 22.099577 26.371896 1.328465 -113.178170 19.179383 -28.872174 0.000000 0.000000 0.000000 
0.229709 0.963035 0.081713 -4.313439 1.341569 6.942939 11.313353 -0.314839 -6.038507 5.259963 -0.591189 0.455739 4.443275 14.810825 33.773256 0.000000 0.000000 0.000000 -3.218363 0.387771 -3.641243 -2.552575 0.289874 0.326114 -3.053045 -11.086056 14.879321 0.000000 0.000000 0.000000 -4.035241 0.156108 -6.205768 1.299578 -0.351721 -5.857815 3.562538 -6.774870 1.505012 -2.255938 1.788296 -0.297915 0.000000 0.000000 0.000000 26.134296 10.179582 -0.359500 -24.290609 -25.187956 2.135260 121.697473 -20.720236 -26.438257 0.000000 0.000000 0.000000 -31.141215 -10.562243 3.832534 24.905464 24.016696 1.247648 -113.368241 23.630123 -35.781766 0.000000 0.000000 0.000000 
0.231246 0.964948 0.083075 -4.587487 0.308992 6.800024 11.611923 -0.273539 -5.667700 5.163836 -0.621790 0.886226 4.087264 14.313523 34.263174 0.000000 0.000000 0.000000 -3.231200 0.387047 -3.583368 -2.361826 0.246263 0.006437 -2.864876 -11.063596 15.721062 0.000000 0.000000 0.000000 -4.104539 0.161099 -6.044761 1.490332 -0.461502 -5.464263 3.646572 -6.684902 2.167620 -2.699816 2.140009 -0.272952 0.000000 0.000000 0.000000 25.874251 11.503898 -0.693283 -26.198901 -22.775935 1.902008 123.543135 -23.223839 -31.136291 0.000000 0.000000 0.000000 -29.981065 -11.558509 3.594944 27.013061 22.777971 1.185819 -112.347002 26.574163 -39.525334 0.000000 0.000000 0.000000 
0.234769 0.967946 0.082433 -4.715712 -1.204500 6.695841 11.418074 -0.227263 -5.352537 5.350269 -0.690714 1.353906 3.764857 13.818553 35.156126 0.000000 0.000000 0.000000 -3.778665 0.419669 -3.892329 -1.765635 0.185727 0.112465 -1.719130 -9.416262 16.159770 0.000000 0.000000 0.000000 -3.810978 0.174298 -5.538698 1.335348 -0.459539 -4.368714 3.774207 -6.838456 2.231362 -3.157493 2.520733 0.201366 0.000000 0.000000 0.000000 25.359033 10.976840 -0.948341 -28.827419 -19.073591 1.434156 126.036327 -26.255363 -36.961149 0.000000 0.000000 0.000000 -28.049832 -11.698112 3.410416 29.532057 21.763361 1.126813 -112.682796 28.835543 -43.534811 0.000000 0.000000 0.000000 
0.240363 0.971044 0.080405 -4.587939 -2.724179 6.981634 10.705080 -0.203375 -5.823417 5.743849 -0.795195 1.943351 3.566576 13.558189 36.983927 0.000000 0.000000 0.000000 -4.215214 0.484986 -4.644689 -1.871462 0.185301 0.001661 -1.303974 -9.259803 17.393913 0.000000 0.000000 0.000000 -3.456137 0.192880 -5.379875 0.858021 -0.308621 -3.135160 4.074129 -7.597484 2.284699 -4.396117 3.557418 0.580422 0.000000 0.000000 0.000000 23.692791 11.619131 -1.610324 -30.510771 -16.557158 1.101782 128.142944 -29.869497 -43.392364 0.000000 0.000000 0.000000 -25.488032 -11.895604 3.171597 31.230026 21.397988 1.031255 -113.163275 31.073428 -48.047808 0.000000 0.000000 0.000000 
0.247251 0.972888 0.077448 -4.317881 -4.041274 7.500374 10.167328 -0.193873 -6.429501 5.199962 -0.793409 2.749014 3.675892 13.335556 36.190889 0.000000 0.000000 0.000000 -5.268645 0.589426 -6.045896 -1.324366 0.159792 0.606738 -0.793763 -8.664908 17.516489 0.000000 0.000000 0.000000 -3.164614 0.203597 -4.992840 0.646412 -0.253585 -1.838240 3.727352 -7.516066 2.450460 -4.751861 3.874000 0.857398 0.000000 0.000000 0.000000 22.582448 10.523596 -1.693964 -33.792334 -14.035663 0.754452 131.508515 -33.254519 -52.047742 0.000000 0.000000 0.000000 -22.601162 -12.547150 2.484490 34.508780 19.062933 0.679710 -116.054058 34.621503 -55.331619 0.000000 0.000000 0.000000 
